PathFileType  4	(X/Y/Z) C:\Users\antoi\Documents\MyRepositories\mobilecap\ResultsAnalysis
DataRate	CameraRate	NumFrames	NumMarkers	Units	OrigDataRate	OrigDataStartFrame	OrigNumFrames
100.0	100.0	4	51	mm	100.0	700	1399
Frame#	Time	r_knee			r_shank_antsup			r_ankle			r_calc			r_5meta			r_toe			L_knee			L_shank_antsup			L_ankle			L_calc			L_5meta			L_toe			r_sh2			r_sh3			r_sh4			L_sh2			L_sh3			r_thigh1			r_thigh2			r_thigh3			r_thigh4			r_thigh5			L_thigh1			L_thigh2			L_thigh3			L_thigh4			r.ASIS			r.PSIS			L.ASIS			L.PSIS			C7			R_Shoulder			L_Shoulder			R_Sternum			L_Sternum			R_humerus			R_elbow_med			R_elbow_lat			R_forearm			R_wrist_radius			R_wrist_ulna			L_humerus			L_elbow_med			L_elbow_lat			L_forearm			L_wrist_radius			L_wrist_ulna			R_HJC			L_HJC			R_HJC_reg			L_HJC_reg			
		X1	Y1	Z1	X2	Y2	Z2	X3	Y3	Z3	X4	Y4	Z4	X5	Y5	Z5	X6	Y6	Z6	X7	Y7	Z7	X8	Y8	Z8	X9	Y9	Z9	X10	Y10	Z10	X11	Y11	Z11	X12	Y12	Z12	X13	Y13	Z13	X14	Y14	Z14	X15	Y15	Z15	X16	Y16	Z16	X17	Y17	Z17	X18	Y18	Z18	X19	Y19	Z19	X20	Y20	Z20	X21	Y21	Z21	X22	Y22	Z22	X23	Y23	Z23	X24	Y24	Z24	X25	Y25	Z25	X26	Y26	Z26	X27	Y27	Z27	X28	Y28	Z28	X29	Y29	Z29	X30	Y30	Z30	X31	Y31	Z31	X32	Y32	Z32	X33	Y33	Z33	X34	Y34	Z34	X35	Y35	Z35	X36	Y36	Z36	X37	Y37	Z37	X38	Y38	Z38	X39	Y39	Z39	X40	Y40	Z40	X41	Y41	Z41	X42	Y42	Z42	X43	Y43	Z43	X44	Y44	Z44	X45	Y45	Z45	X46	Y46	Z46	X47	Y47	Z47	X48	Y48	Z48	X49	Y49	Z49	X50	Y50	Z50	X51	Y51	Z51	

700	6.99000000	-220.22493	504.98326	-426.53535	-191.64022	407.69383	-421.90893	-293.60278	92.18743	-417.63728	-356.92920	58.61550	-462.21293	-170.48854	42.39995	-384.77561	-139.95134	71.69579	-440.72192	-233.75502	511.88954	-782.21245	-198.06329	425.15506	-782.97254	-284.18241	96.92666	-799.52221	-355.26887	53.67136	-750.28285	-181.02848	40.17951	-843.46404	-131.36589	65.94021	-790.13406	-210.79079	295.59199	-417.39268	-258.66969	418.72529	-389.22131	-284.99963	307.94313	-382.30228	-280.50653	449.70318	-813.64048	-298.08009	329.87413	-828.66401	-180.30071	788.70366	-422.90077	-167.35765	678.34465	-428.55535	-217.79304	645.99305	-397.46242	-291.64558	770.48375	-409.29714	-269.65334	656.77328	-416.12710	-171.13387	762.99257	-784.14667	-152.15632	624.40031	-772.84744	-275.97675	748.70389	-813.22820	-259.64416	617.02916	-794.32202	-159.47222	978.33807	-480.38129	-367.70493	1000.53095	-560.39222	-167.56334	982.79262	-737.06467	-367.18322	1001.76484	-652.03100	-357.52785	1461.06408	-604.85652	-291.13081	1446.83268	-441.83601	-279.00560	1435.93911	-758.59591	-221.29658	1403.06841	-577.72626	-223.70014	1402.10811	-626.03342	-277.78599	1321.99948	-371.68045	-366.91117	1127.37253	-419.08707	-373.08579	1137.25014	-345.40503	-275.58323	1145.30186	-338.10577	-122.29871	1158.82683	-392.99475	-126.42352	1114.88366	-371.05268	-270.94493	1297.41725	-826.23057	-359.34812	1109.92656	-775.28063	-350.36832	1122.68392	-860.79915	-273.39314	1135.25066	-859.07194	-118.24928	1162.75022	-803.45571	-120.78061	1115.24424	-822.90267	-238.01492	886.97274	-507.83578	-240.76979	891.04674	-697.33446	-231.68904	897.77893	-518.15561	-230.72381	900.06121	-687.65808	
701	7.00000000	-220.23902	504.59109	-426.72327	-191.27151	407.58475	-422.07634	-293.55296	92.22286	-417.66966	-356.90558	58.65516	-462.28131	-170.48035	42.44945	-384.80190	-139.92883	71.65946	-440.78288	-233.38318	511.81158	-782.45085	-197.50690	425.15672	-783.32818	-284.09426	97.00761	-799.60297	-355.21325	53.79279	-750.20202	-181.01599	40.14308	-843.47642	-131.29091	65.82026	-790.09818	-210.48357	295.38702	-417.65193	-258.42729	418.90570	-388.96085	-284.60835	308.04278	-382.47215	-279.86892	449.70596	-813.69280	-297.63734	329.96352	-828.70623	-181.38117	788.65857	-422.91251	-168.09436	678.32756	-428.45817	-218.42820	645.82577	-397.55954	-292.73167	770.07376	-409.37816	-270.21215	656.38318	-416.53264	-172.19965	763.13316	-784.36353	-152.41914	624.58802	-773.10805	-277.02765	748.27791	-812.83786	-259.95447	616.74329	-794.48414	-161.00129	978.37541	-480.48683	-369.13133	1000.65326	-560.50499	-169.10420	982.91625	-736.65467	-368.70106	1001.89931	-652.07169	-356.94237	1461.63516	-604.56800	-290.37015	1446.95793	-442.01354	-278.33193	1436.10304	-758.40735	-220.86126	1402.92778	-577.72111	-223.43229	1401.92311	-625.92991	-277.09835	1322.05741	-371.79720	-367.18057	1128.01928	-419.05441	-373.17587	1137.72389	-345.31368	-275.67977	1145.42347	-338.14566	-122.36928	1158.27264	-392.82906	-126.72293	1114.39242	-370.90580	-270.37308	1297.51345	-826.00458	-359.17667	1110.22848	-775.79678	-350.44583	1122.97120	-860.51260	-273.58785	1135.39907	-859.13833	-118.17521	1162.30244	-804.06395	-120.97030	1114.69497	-823.38369	-239.59614	887.04399	-507.81135	-242.25327	891.16839	-697.31036	-233.13726	898.02880	-518.11457	-232.34219	900.33096	-687.27883	
702	7.01000000	-220.18258	503.90260	-426.85003	-190.76658	407.45116	-422.20718	-293.47687	92.27612	-417.69220	-356.87593	58.71464	-462.35496	-170.46823	42.47226	-384.79418	-139.90018	71.61510	-440.82225	-232.86917	511.80116	-782.87553	-196.77596	425.15426	-783.48285	-283.95402	97.05501	-799.54123	-355.12763	53.96620	-750.08216	-180.98655	40.12096	-843.48405	-131.20442	65.71123	-790.06658	-210.14676	295.24320	-417.83502	-258.02717	418.96486	-388.82934	-284.10952	307.92078	-382.36614	-278.90386	449.77682	-813.88056	-297.01360	330.09417	-828.74547	-182.56314	788.56892	-422.94990	-168.79165	678.33137	-428.38639	-218.98963	645.48042	-397.73334	-293.95379	769.54909	-409.40228	-270.89814	655.86287	-416.91652	-173.31077	763.36242	-784.54609	-152.67058	624.79239	-773.34426	-278.13754	747.74751	-812.46351	-260.22078	616.47980	-794.71817	-162.73024	978.17512	-480.62063	-370.70874	1000.77759	-560.29187	-170.83915	982.78877	-736.20260	-370.30176	1002.05362	-651.72965	-356.34296	1462.29064	-604.19146	-289.64064	1447.11113	-442.09015	-277.70480	1436.29463	-758.50002	-220.39335	1402.83646	-577.67739	-223.11083	1401.77464	-625.99039	-276.50606	1322.19380	-371.86895	-367.57677	1128.64114	-418.82220	-373.34144	1138.28884	-345.16402	-275.88039	1145.58076	-338.11094	-122.54577	1157.82471	-392.71020	-127.07849	1114.01476	-370.77059	-269.82181	1297.64523	-825.98659	-359.29467	1110.75999	-775.74956	-350.61138	1123.31196	-860.26588	-273.83194	1135.63215	-859.24051	-118.26298	1162.07992	-804.66012	-121.22439	1114.37960	-823.70264	-241.38186	886.95865	-507.63481	-244.10112	891.14558	-697.13150	-234.92406	898.10989	-518.15686	-234.17365	900.46569	-686.93530	
703	7.02000000	-219.84588	503.57484	-426.84135	-190.10982	407.28799	-422.43902	-293.40948	92.28346	-417.84362	-356.85249	58.78280	-462.39374	-170.46067	42.48494	-384.79981	-139.84803	71.57615	-440.87333	-232.20941	511.77981	-783.17812	-195.82708	425.09056	-783.41204	-283.75447	97.08207	-799.34760	-355.00427	54.30278	-750.13089	-180.94547	40.10490	-843.49407	-131.11245	65.62511	-790.06333	-209.73414	295.20227	-418.00845	-257.30965	418.78446	-389.06368	-283.38526	307.67831	-382.06275	-277.75622	449.94839	-814.25413	-296.21503	330.24108	-828.70703	-183.88035	788.50428	-423.00232	-169.47894	678.30712	-428.40213	-219.52132	645.09713	-397.90450	-295.25516	768.82959	-409.49713	-271.63407	655.29741	-417.12434	-174.41282	763.61023	-784.63669	-152.90903	625.10773	-773.59737	-279.19018	747.36253	-812.67233	-260.39878	616.25468	-794.88953	-164.58463	977.75019	-480.75684	-372.46805	1000.93571	-559.83001	-172.73109	982.52767	-736.07040	-372.08258	1002.30870	-651.43586	-355.61246	1462.86699	-603.91237	-288.79373	1447.42308	-441.93660	-277.05175	1436.51353	-758.81502	-219.95534	1402.72876	-577.57894	-222.62153	1401.61964	-626.15107	-276.03978	1322.38254	-371.82325	-368.04252	1129.13255	-418.45114	-373.60467	1138.92340	-344.89677	-276.16865	1145.76503	-337.96479	-122.79508	1157.49405	-392.67936	-127.46720	1113.64871	-370.79462	-269.32325	1297.77291	-825.90064	-359.64124	1111.48111	-775.29095	-350.82682	1123.68059	-860.10750	-274.06443	1135.92569	-859.34250	-118.37895	1162.06653	-805.20271	-121.41643	1114.29778	-823.87324	-243.38246	886.74524	-507.54978	-246.29181	891.07459	-697.04039	-236.95853	897.92180	-518.31109	-236.24891	900.44761	-686.91245	
